<mxfile host="app.diagrams.net" modified="2023-07-18T00:49:59.842Z" agent="Mozilla/5.0 (Windows NT 10.0; Win64; x64) AppleWebKit/537.36 (KHTML, like Gecko) Chrome/114.0.0.0 Safari/537.36" version="21.6.2" etag="4mTNOtr1prsfQabVWmep" type="github">
  <diagram name="페이지-1" id="puLp9kT3ZysuRMldmDHB">
    <mxGraphModel>
      <root>
        <mxCell id="0" />
        <mxCell id="1" parent="0" />
      </root>
    </mxGraphModel>
  </diagram>
</mxfile>
